External Loads File
version=1
nRows=54
nColumns=13
Range=5.000000e-03-10 seconds
endheader
time 	forceRightX 	forceRightY 	forceRightZ 	pointRightX 	pointRightY 	pointRightZ 	forceLeftX 	forceLeftY 	forceLeftZ 	pointLeftX 	pointLeftY 	pointLeftZ 		
7.505000 204.035240 267.366942 -0.000000 0.217698 0.164447 -0.146572 -68.817681 86.511401 -0.000000 0.358777 0.485247 -0.384865
7.510000 175.524964 188.292034 -0.000000 0.210345 0.169413 -0.146731 -57.372142 111.087479 -0.000000 0.365778 0.480714 -0.385427
7.515000 130.382173 131.380044 -0.000000 0.202980 0.174823 -0.147052 -55.630425 129.512122 -0.000000 0.372337 0.475452 -0.386129
7.520000 103.015613 65.132767 -0.000000 0.195694 0.180931 -0.147200 -34.126748 153.353344 -0.000000 0.378822 0.469246 -0.387050
7.525000 67.262795 23.125694 -0.000000 0.188617 0.187496 -0.147476 -32.600002 169.298094 -0.000000 0.384794 0.462868 -0.387535
7.530000 37.990773 -18.932719 -0.000000 0.181660 0.194633 -0.147731 -6.091677 185.852322 -0.000000 0.390103 0.455432 -0.388309
7.535000 15.167487 -46.770742 -0.000000 0.174935 0.202331 -0.147900 -4.685874 197.055977 -0.000000 0.395258 0.447335 -0.388942
7.540000 0.373365 -69.862896 -0.000000 0.168474 0.210511 -0.148110 -3.652275 205.628324 -0.000000 0.400223 0.438803 -0.388891
7.545000 -7.133930 -88.083089 -0.000000 0.162007 0.218993 -0.148753 -3.975789 211.678276 -0.000000 0.404693 0.429795 -0.388869
7.550000 -9.108566 -101.332325 -0.000000 0.156530 0.228107 -0.148820 -4.168171 215.560994 -0.000000 0.408839 0.420397 -0.388921
7.555000 -6.818655 -109.577518 -0.000000 0.151488 0.237440 -0.148848 -4.344163 217.695340 -0.000000 0.412544 0.410787 -0.388850
7.560000 -1.224411 -112.924810 -0.000000 0.147248 0.247073 -0.149061 -5.017527 218.493189 -0.000000 0.415961 0.400220 -0.388672
7.565000 6.387426 -111.576346 -0.000000 0.143449 0.256849 -0.149181 -5.898518 218.335628 -0.000000 0.418642 0.389841 -0.388535
7.570000 14.646026 -105.942372 -0.000000 0.140263 0.266907 -0.149077 -6.358834 217.570036 -0.000000 0.421296 0.379636 -0.388375
7.575000 23.094225 -96.516247 -0.000000 0.137892 0.277162 -0.149304 -7.363240 216.439116 -0.000000 0.423613 0.368837 -0.388044
7.580000 30.513444 -84.068491 -0.000000 0.136075 0.287303 -0.149380 -7.972093 215.170412 -0.000000 0.425290 0.357867 -0.387882
7.585000 36.755722 -69.255907 -0.000000 0.134923 0.297793 -0.149424 -9.308261 213.874598 -0.000000 0.426457 0.346755 -0.387919
7.590000 40.847281 -53.180530 -0.000000 0.134390 0.308236 -0.149541 -9.757770 212.740082 -0.000000 0.427232 0.335650 -0.388260
7.595000 42.926171 -36.453381 -0.000000 0.134557 0.318709 -0.149651 -10.511747 211.790855 -0.000000 0.427287 0.324520 -0.388063
7.600000 42.794362 -19.851892 -0.000000 0.135349 0.329169 -0.149774 -11.293792 211.067957 -0.000000 0.426848 0.313501 -0.387519
7.605000 40.498242 -4.133255 -0.000000 0.136734 0.339669 -0.149939 -11.424973 210.617290 -0.000000 0.425657 0.302234 -0.387413
7.610000 36.351504 10.359003 -0.000000 0.138816 0.349976 -0.149984 -11.857898 210.376319 -0.000000 0.423996 0.291437 -0.387195
7.615000 30.768375 22.985904 -0.000000 0.141570 0.360269 -0.150158 -11.781670 210.362091 -0.000000 0.421553 0.281077 -0.387401
7.620000 24.280774 33.369440 -0.000000 0.144755 0.370523 -0.150246 -11.684014 210.517954 -0.000000 0.418608 0.270703 -0.387281
7.625000 17.528511 41.051840 -0.000000 0.148385 0.380590 -0.150471 -11.428307 210.813471 -0.000000 0.415139 0.260452 -0.387040
7.630000 11.255823 45.641028 -0.000000 0.152764 0.390559 -0.150563 -10.652792 211.222356 -0.000000 0.411143 0.250445 -0.386746
7.635000 5.890870 46.960392 -0.000000 0.157685 0.400392 -0.150589 -10.359342 211.662828 -0.000000 0.406554 0.240725 -0.386425
7.640000 2.196437 44.954964 -0.000000 0.163132 0.410055 -0.150760 -9.599624 212.162751 -0.000000 0.401448 0.231271 -0.386124
7.645000 0.429931 39.912529 -0.000000 0.169183 0.419674 -0.150975 -9.067523 212.661700 -0.000000 0.395823 0.222115 -0.385872
7.650000 0.843821 32.370889 -0.000000 0.175679 0.428793 -0.151081 -8.401110 213.147574 -0.000000 0.389626 0.213490 -0.385476
7.655000 3.312074 23.083852 -0.000000 0.182508 0.437739 -0.151455 -7.966110 213.577128 -0.000000 0.382893 0.205249 -0.385188
7.660000 7.617685 12.888556 -0.000000 0.189874 0.446365 -0.151861 -7.401771 213.928976 -0.000000 0.375676 0.197529 -0.385004
7.665000 13.326678 2.620228 -0.000000 0.197543 0.454460 -0.152308 -7.329482 214.149944 -0.000000 0.367993 0.190273 -0.384796
7.670000 19.994961 -7.049237 -0.000000 0.205632 0.461751 -0.152560 -7.286764 214.234692 -0.000000 0.360001 0.183595 -0.384698
7.675000 27.067501 -15.679827 -0.000000 0.214045 0.468451 -0.152959 -7.213160 214.164659 -0.000000 0.351516 0.177093 -0.384421
7.680000 34.054140 -22.954742 -0.000000 0.222733 0.474621 -0.153422 -8.013709 213.899860 -0.000000 0.342817 0.171408 -0.384342
7.685000 40.270821 -29.065900 -0.000000 0.231893 0.480486 -0.153489 -8.501012 213.499691 -0.000000 0.333885 0.166343 -0.384371
7.690000 45.151040 -34.164458 -0.000000 0.241000 0.484784 -0.154002 -9.117032 212.976646 -0.000000 0.324783 0.161884 -0.384348
7.695000 48.120211 -38.596771 -0.000000 0.250689 0.489566 -0.154168 -9.903044 212.352606 -0.000000 0.315446 0.158071 -0.384342
7.700000 48.625379 -42.894970 -0.000000 0.260401 0.492978 -0.154424 -10.655341 211.667805 -0.000000 0.305933 0.154890 -0.384244
7.705000 46.291859 -47.621696 -0.000000 0.270081 0.495942 -0.154755 -11.409461 210.957778 -0.000000 0.296388 0.152409 -0.384283
7.710000 41.020767 -53.293227 -0.000000 0.279877 0.498185 -0.154908 -12.440440 210.241760 -0.000000 0.286792 0.150574 -0.384326
7.715000 32.675903 -60.560659 -0.000000 0.289729 0.499726 -0.154994 -12.872997 209.620571 -0.000000 0.277187 0.149486 -0.384325
7.720000 21.790313 -69.605323 -0.000000 0.300020 0.500652 -0.154956 -13.433040 209.118339 -0.000000 0.267553 0.149046 -0.384380
7.725000 8.824510 -80.599656 -0.000000 0.309829 0.500833 -0.154886 -13.658281 208.821825 -0.000000 0.257912 0.149426 -0.384392
7.730000 -5.533035 -93.362603 -0.000000 0.319326 0.500111 -0.154580 -13.354303 208.790671 -0.000000 0.248357 0.150634 -0.384424
7.735000 -20.194180 -107.541366 -0.000000 0.328354 0.498926 -0.154314 -12.978100 209.038614 -0.000000 0.238897 0.152632 -0.384387
7.740000 -34.450862 -122.755654 -0.000000 0.336908 0.497176 -0.154148 -12.138978 209.611232 -0.000000 0.229718 0.155411 -0.384283
7.745000 -47.127631 -138.909880 -0.000000 0.345113 0.494671 -0.153938 -11.542806 210.451556 -0.000000 0.220741 0.158942 -0.384004
7.750000 -58.158323 -155.899104 -0.000000 0.353002 0.491527 -0.153598 -10.396534 211.561919 -0.000000 0.212035 0.163162 -0.383609
7.755000 -66.884505 -174.136966 -0.000000 0.360285 0.487665 -0.153239 -9.215685 212.843126 -0.000000 0.203739 0.168041 -0.383198
7.760000 -72.869146 -194.201712 -0.000000 0.367115 0.483147 -0.153027 -8.300107 214.185658 -0.000000 0.195717 0.173460 -0.382670
7.765000 -76.065931 -216.548333 -0.000000 0.373988 0.478090 -0.152490 -7.522297 215.503460 -0.000000 0.188128 0.179328 -0.382261
7.770000 -76.311556 -241.559479 -0.000000 0.380230 0.471820 -0.152187 -6.857977 216.733910 -0.000000 0.180865 0.185646 -0.381910
